<svg width="106" height="139" viewBox="0 0 106 139" fill="none" xmlns="http://www.w3.org/2000/svg">
<path d="M33.792 89.96C30.848 89.96 28.224 89.48 25.92 88.52C23.68 87.56 21.6 86.024 19.68 83.912C17.824 81.8 15.968 79.08 14.112 75.752L15.552 71.816C17.024 75.016 18.624 77.64 20.352 79.688C22.08 81.736 23.968 83.24 26.016 84.2C28.128 85.16 30.464 85.64 33.024 85.64C35.456 85.64 37.6 85.128 39.456 84.104C41.376 83.08 42.944 81.64 44.16 79.784C45.44 77.864 46.4 75.592 47.04 72.968C47.68 70.28 48 67.272 48 63.944C48 60.744 47.68 57.864 47.04 55.304C46.4 52.744 45.472 50.536 44.256 48.68C43.104 46.824 41.632 45.416 39.84 44.456C38.048 43.496 35.968 43.016 33.6 43.016C30.848 43.016 28.384 43.592 26.208 44.744C24.032 45.896 22.08 47.592 20.352 49.832C18.688 52.008 17.088 54.696 15.552 57.896L14.304 54.152C16.224 50.632 18.144 47.752 20.064 45.512C21.984 43.208 24.128 41.512 26.496 40.424C28.864 39.272 31.616 38.696 34.752 38.696C39.04 38.696 42.848 39.752 46.176 41.864C49.568 43.912 52.224 46.856 54.144 50.696C56.064 54.472 57.024 58.888 57.024 63.944C57.024 69.064 56.032 73.576 54.048 77.48C52.128 81.384 49.408 84.456 45.888 86.696C42.432 88.872 38.4 89.96 33.792 89.96ZM9.408 25.544C9.408 24.584 9.152 23.848 8.64 23.336C8.192 22.824 7.456 22.408 6.432 22.088C5.408 21.768 4.096 21.48 2.496 21.224L1.44 21.032V17.576H17.952V78.632L17.28 79.016L13.632 89.48H9.408V25.544Z" fill="#959494"/>
<path d="M73.296 47.84C77.072 47.84 80.4 48.256 83.28 49.088C86.224 49.856 88.688 51.008 90.672 52.544C92.656 54.016 94.16 55.84 95.184 58.016C96.208 60.128 96.72 62.496 96.72 65.12C96.72 68.32 95.792 71.136 93.936 73.568C92.144 75.936 89.456 77.792 85.872 79.136C82.352 80.416 77.904 81.056 72.528 81.056L79.056 78.56V81.632L73.872 79.136C79.632 79.136 84.432 79.872 88.272 81.344C92.176 82.752 95.12 84.8 97.104 87.488C99.152 90.176 100.176 93.312 100.176 96.896C100.176 99.84 99.6 102.496 98.448 104.864C97.36 107.232 95.728 109.248 93.552 110.912C91.376 112.576 88.72 113.856 85.584 114.752C82.448 115.584 78.832 116 74.736 116H45.744V112.448H46.512C48.688 112.448 50.544 112.224 52.08 111.776C53.616 111.328 54.384 110.4 54.384 108.992V54.848C54.384 53.44 53.616 52.512 52.08 52.064C50.544 51.616 48.688 51.392 46.512 51.392H45.744V47.84H73.296ZM60.816 78.272H73.296C76.88 78.272 79.696 77.728 81.744 76.64C83.856 75.552 85.36 74.016 86.256 72.032C87.216 70.048 87.696 67.776 87.696 65.216C87.696 62.4 87.184 60.032 86.16 58.112C85.2 56.128 83.664 54.624 81.552 53.6C79.44 52.512 76.656 51.968 73.2 51.968H63.312V111.872H74.544C78.384 111.872 81.488 111.296 83.856 110.144C86.288 108.992 88.08 107.296 89.232 105.056C90.384 102.752 90.96 100 90.96 96.8C90.96 94.048 90.416 91.584 89.328 89.408C88.24 87.232 86.48 85.504 84.048 84.224C81.68 82.944 78.512 82.304 74.544 82.304H60.816V78.272Z" fill="#959494"/>
</svg>
